<svg width="900" height="52" viewBox="0 0 900 52" xmlns="http://www.w3.org/2000/svg">
<defs>
  <linearGradient id="fadeL" x1="0" y1="0" x2="1" y2="0">
    <stop offset="0%" stop-color="#030712" stop-opacity="1"/>
    <stop offset="12%" stop-color="#030712" stop-opacity="0"/>
    <stop offset="88%" stop-color="#030712" stop-opacity="0"/>
    <stop offset="100%" stop-color="#030712" stop-opacity="1"/>
  </linearGradient>
</defs>
<rect width="900" height="52" fill="#030712"/>
<g>
  <animateTransform attributeName="transform" type="translate" from="0 0" to="-2200 0" dur="30s" repeatCount="indefinite"/>
  <rect x="10" y="8" width="90" height="36" rx="18" fill="rgba(255,255,255,0.03)" stroke="#f7df1e" stroke-width="0.8" stroke-opacity="0.3"/><circle cx="28" cy="26" r="5" fill="#f7df1e" opacity="0.8"/><text x="40" y="30" font-family="Courier New,monospace" font-size="11" fill="#f7df1e" opacity="0.85" font-weight="600">JS</text><rect x="120" y="8" width="90" height="36" rx="18" fill="rgba(255,255,255,0.03)" stroke="#3178c6" stroke-width="0.8" stroke-opacity="0.3"/><circle cx="138" cy="26" r="5" fill="#3178c6" opacity="0.8"/><text x="150" y="30" font-family="Courier New,monospace" font-size="11" fill="#3178c6" opacity="0.85" font-weight="600">TS</text><rect x="230" y="8" width="90" height="36" rx="18" fill="rgba(255,255,255,0.03)" stroke="#61dafb" stroke-width="0.8" stroke-opacity="0.3"/><circle cx="248" cy="26" r="5" fill="#61dafb" opacity="0.8"/><text x="260" y="30" font-family="Courier New,monospace" font-size="11" fill="#61dafb" opacity="0.85" font-weight="600">React</text><rect x="340" y="8" width="90" height="36" rx="18" fill="rgba(255,255,255,0.03)" stroke="#fff" stroke-width="0.8" stroke-opacity="0.3"/><circle cx="358" cy="26" r="5" fill="#fff" opacity="0.8"/><text x="370" y="30" font-family="Courier New,monospace" font-size="11" fill="#fff" opacity="0.85" font-weight="600">Next.js</text><rect x="450" y="8" width="90" height="36" rx="18" fill="rgba(255,255,255,0.03)" stroke="#3c873a" stroke-width="0.8" stroke-opacity="0.3"/><circle cx="468" cy="26" r="5" fill="#3c873a" opacity="0.8"/><text x="480" y="30" font-family="Courier New,monospace" font-size="11" fill="#3c873a" opacity="0.85" font-weight="600">Node.js</text><rect x="560" y="8" width="90" height="36" rx="18" fill="rgba(255,255,255,0.03)" stroke="#68a063" stroke-width="0.8" stroke-opacity="0.3"/><circle cx="578" cy="26" r="5" fill="#68a063" opacity="0.8"/><text x="590" y="30" font-family="Courier New,monospace" font-size="11" fill="#68a063" opacity="0.85" font-weight="600">Express</text><rect x="670" y="8" width="90" height="36" rx="18" fill="rgba(255,255,255,0.03)" stroke="#47a248" stroke-width="0.8" stroke-opacity="0.3"/><circle cx="688" cy="26" r="5" fill="#47a248" opacity="0.8"/><text x="700" y="30" font-family="Courier New,monospace" font-size="11" fill="#47a248" opacity="0.85" font-weight="600">MongoDB</text><rect x="780" y="8" width="90" height="36" rx="18" fill="rgba(255,255,255,0.03)" stroke="#336791" stroke-width="0.8" stroke-opacity="0.3"/><circle cx="798" cy="26" r="5" fill="#336791" opacity="0.8"/><text x="810" y="30" font-family="Courier New,monospace" font-size="11" fill="#336791" opacity="0.85" font-weight="600">PostgreSQL</text><rect x="890" y="8" width="90" height="36" rx="18" fill="rgba(255,255,255,0.03)" stroke="#ffca28" stroke-width="0.8" stroke-opacity="0.3"/><circle cx="908" cy="26" r="5" fill="#ffca28" opacity="0.8"/><text x="920" y="30" font-family="Courier New,monospace" font-size="11" fill="#ffca28" opacity="0.85" font-weight="600">Firebase</text><rect x="1000" y="8" width="90" height="36" rx="18" fill="rgba(255,255,255,0.03)" stroke="#2496ed" stroke-width="0.8" stroke-opacity="0.3"/><circle cx="1018" cy="26" r="5" fill="#2496ed" opacity="0.8"/><text x="1030" y="30" font-family="Courier New,monospace" font-size="11" fill="#2496ed" opacity="0.85" font-weight="600">Docker</text><rect x="1110" y="8" width="90" height="36" rx="18" fill="rgba(255,255,255,0.03)" stroke="#ff9900" stroke-width="0.8" stroke-opacity="0.3"/><circle cx="1128" cy="26" r="5" fill="#ff9900" opacity="0.8"/><text x="1140" y="30" font-family="Courier New,monospace" font-size="11" fill="#ff9900" opacity="0.85" font-weight="600">AWS</text><rect x="1220" y="8" width="90" height="36" rx="18" fill="rgba(255,255,255,0.03)" stroke="#fff" stroke-width="0.8" stroke-opacity="0.3"/><circle cx="1238" cy="26" r="5" fill="#fff" opacity="0.8"/><text x="1250" y="30" font-family="Courier New,monospace" font-size="11" fill="#fff" opacity="0.85" font-weight="600">Vercel</text><rect x="1330" y="8" width="90" height="36" rx="18" fill="rgba(255,255,255,0.03)" stroke="#38bdf8" stroke-width="0.8" stroke-opacity="0.3"/><circle cx="1348" cy="26" r="5" fill="#38bdf8" opacity="0.8"/><text x="1360" y="30" font-family="Courier New,monospace" font-size="11" fill="#38bdf8" opacity="0.85" font-weight="600">Tailwind</text><rect x="1440" y="8" width="90" height="36" rx="18" fill="rgba(255,255,255,0.03)" stroke="#627eea" stroke-width="0.8" stroke-opacity="0.3"/><circle cx="1458" cy="26" r="5" fill="#627eea" opacity="0.8"/><text x="1470" y="30" font-family="Courier New,monospace" font-size="11" fill="#627eea" opacity="0.85" font-weight="600">Solidity</text><rect x="1550" y="8" width="90" height="36" rx="18" fill="rgba(255,255,255,0.03)" stroke="#3776ab" stroke-width="0.8" stroke-opacity="0.3"/><circle cx="1568" cy="26" r="5" fill="#3776ab" opacity="0.8"/><text x="1580" y="30" font-family="Courier New,monospace" font-size="11" fill="#3776ab" opacity="0.85" font-weight="600">Python</text><rect x="1660" y="8" width="90" height="36" rx="18" fill="rgba(255,255,255,0.03)" stroke="#f05032" stroke-width="0.8" stroke-opacity="0.3"/><circle cx="1678" cy="26" r="5" fill="#f05032" opacity="0.8"/><text x="1690" y="30" font-family="Courier New,monospace" font-size="11" fill="#f05032" opacity="0.85" font-weight="600">Git</text><rect x="1770" y="8" width="90" height="36" rx="18" fill="rgba(255,255,255,0.03)" stroke="#fcc624" stroke-width="0.8" stroke-opacity="0.3"/><circle cx="1788" cy="26" r="5" fill="#fcc624" opacity="0.8"/><text x="1800" y="30" font-family="Courier New,monospace" font-size="11" fill="#fcc624" opacity="0.85" font-weight="600">Linux</text><rect x="1880" y="8" width="90" height="36" rx="18" fill="rgba(255,255,255,0.03)" stroke="#f24e1e" stroke-width="0.8" stroke-opacity="0.3"/><circle cx="1898" cy="26" r="5" fill="#f24e1e" opacity="0.8"/><text x="1910" y="30" font-family="Courier New,monospace" font-size="11" fill="#f24e1e" opacity="0.85" font-weight="600">Figma</text><rect x="1990" y="8" width="90" height="36" rx="18" fill="rgba(255,255,255,0.03)" stroke="#dc382d" stroke-width="0.8" stroke-opacity="0.3"/><circle cx="2008" cy="26" r="5" fill="#dc382d" opacity="0.8"/><text x="2020" y="30" font-family="Courier New,monospace" font-size="11" fill="#dc382d" opacity="0.85" font-weight="600">Redis</text><rect x="2100" y="8" width="90" height="36" rx="18" fill="rgba(255,255,255,0.03)" stroke="#e10098" stroke-width="0.8" stroke-opacity="0.3"/><circle cx="2118" cy="26" r="5" fill="#e10098" opacity="0.8"/><text x="2130" y="30" font-family="Courier New,monospace" font-size="11" fill="#e10098" opacity="0.85" font-weight="600">GraphQL</text><rect x="2210" y="8" width="90" height="36" rx="18" fill="rgba(255,255,255,0.03)" stroke="#f7df1e" stroke-width="0.8" stroke-opacity="0.3"/><circle cx="2228" cy="26" r="5" fill="#f7df1e" opacity="0.8"/><text x="2240" y="30" font-family="Courier New,monospace" font-size="11" fill="#f7df1e" opacity="0.85" font-weight="600">JS</text><rect x="2320" y="8" width="90" height="36" rx="18" fill="rgba(255,255,255,0.03)" stroke="#3178c6" stroke-width="0.8" stroke-opacity="0.3"/><circle cx="2338" cy="26" r="5" fill="#3178c6" opacity="0.8"/><text x="2350" y="30" font-family="Courier New,monospace" font-size="11" fill="#3178c6" opacity="0.85" font-weight="600">TS</text><rect x="2430" y="8" width="90" height="36" rx="18" fill="rgba(255,255,255,0.03)" stroke="#61dafb" stroke-width="0.8" stroke-opacity="0.3"/><circle cx="2448" cy="26" r="5" fill="#61dafb" opacity="0.8"/><text x="2460" y="30" font-family="Courier New,monospace" font-size="11" fill="#61dafb" opacity="0.85" font-weight="600">React</text><rect x="2540" y="8" width="90" height="36" rx="18" fill="rgba(255,255,255,0.03)" stroke="#fff" stroke-width="0.8" stroke-opacity="0.3"/><circle cx="2558" cy="26" r="5" fill="#fff" opacity="0.8"/><text x="2570" y="30" font-family="Courier New,monospace" font-size="11" fill="#fff" opacity="0.85" font-weight="600">Next.js</text><rect x="2650" y="8" width="90" height="36" rx="18" fill="rgba(255,255,255,0.03)" stroke="#3c873a" stroke-width="0.8" stroke-opacity="0.3"/><circle cx="2668" cy="26" r="5" fill="#3c873a" opacity="0.8"/><text x="2680" y="30" font-family="Courier New,monospace" font-size="11" fill="#3c873a" opacity="0.85" font-weight="600">Node.js</text><rect x="2760" y="8" width="90" height="36" rx="18" fill="rgba(255,255,255,0.03)" stroke="#68a063" stroke-width="0.8" stroke-opacity="0.3"/><circle cx="2778" cy="26" r="5" fill="#68a063" opacity="0.8"/><text x="2790" y="30" font-family="Courier New,monospace" font-size="11" fill="#68a063" opacity="0.85" font-weight="600">Express</text><rect x="2870" y="8" width="90" height="36" rx="18" fill="rgba(255,255,255,0.03)" stroke="#47a248" stroke-width="0.8" stroke-opacity="0.3"/><circle cx="2888" cy="26" r="5" fill="#47a248" opacity="0.8"/><text x="2900" y="30" font-family="Courier New,monospace" font-size="11" fill="#47a248" opacity="0.85" font-weight="600">MongoDB</text><rect x="2980" y="8" width="90" height="36" rx="18" fill="rgba(255,255,255,0.03)" stroke="#336791" stroke-width="0.8" stroke-opacity="0.3"/><circle cx="2998" cy="26" r="5" fill="#336791" opacity="0.8"/><text x="3010" y="30" font-family="Courier New,monospace" font-size="11" fill="#336791" opacity="0.85" font-weight="600">PostgreSQL</text><rect x="3090" y="8" width="90" height="36" rx="18" fill="rgba(255,255,255,0.03)" stroke="#ffca28" stroke-width="0.8" stroke-opacity="0.3"/><circle cx="3108" cy="26" r="5" fill="#ffca28" opacity="0.8"/><text x="3120" y="30" font-family="Courier New,monospace" font-size="11" fill="#ffca28" opacity="0.85" font-weight="600">Firebase</text><rect x="3200" y="8" width="90" height="36" rx="18" fill="rgba(255,255,255,0.03)" stroke="#2496ed" stroke-width="0.8" stroke-opacity="0.3"/><circle cx="3218" cy="26" r="5" fill="#2496ed" opacity="0.8"/><text x="3230" y="30" font-family="Courier New,monospace" font-size="11" fill="#2496ed" opacity="0.85" font-weight="600">Docker</text><rect x="3310" y="8" width="90" height="36" rx="18" fill="rgba(255,255,255,0.03)" stroke="#ff9900" stroke-width="0.8" stroke-opacity="0.3"/><circle cx="3328" cy="26" r="5" fill="#ff9900" opacity="0.8"/><text x="3340" y="30" font-family="Courier New,monospace" font-size="11" fill="#ff9900" opacity="0.85" font-weight="600">AWS</text><rect x="3420" y="8" width="90" height="36" rx="18" fill="rgba(255,255,255,0.03)" stroke="#fff" stroke-width="0.8" stroke-opacity="0.3"/><circle cx="3438" cy="26" r="5" fill="#fff" opacity="0.8"/><text x="3450" y="30" font-family="Courier New,monospace" font-size="11" fill="#fff" opacity="0.85" font-weight="600">Vercel</text><rect x="3530" y="8" width="90" height="36" rx="18" fill="rgba(255,255,255,0.03)" stroke="#38bdf8" stroke-width="0.8" stroke-opacity="0.3"/><circle cx="3548" cy="26" r="5" fill="#38bdf8" opacity="0.8"/><text x="3560" y="30" font-family="Courier New,monospace" font-size="11" fill="#38bdf8" opacity="0.85" font-weight="600">Tailwind</text><rect x="3640" y="8" width="90" height="36" rx="18" fill="rgba(255,255,255,0.03)" stroke="#627eea" stroke-width="0.8" stroke-opacity="0.3"/><circle cx="3658" cy="26" r="5" fill="#627eea" opacity="0.8"/><text x="3670" y="30" font-family="Courier New,monospace" font-size="11" fill="#627eea" opacity="0.85" font-weight="600">Solidity</text><rect x="3750" y="8" width="90" height="36" rx="18" fill="rgba(255,255,255,0.03)" stroke="#3776ab" stroke-width="0.8" stroke-opacity="0.3"/><circle cx="3768" cy="26" r="5" fill="#3776ab" opacity="0.8"/><text x="3780" y="30" font-family="Courier New,monospace" font-size="11" fill="#3776ab" opacity="0.85" font-weight="600">Python</text><rect x="3860" y="8" width="90" height="36" rx="18" fill="rgba(255,255,255,0.03)" stroke="#f05032" stroke-width="0.8" stroke-opacity="0.3"/><circle cx="3878" cy="26" r="5" fill="#f05032" opacity="0.8"/><text x="3890" y="30" font-family="Courier New,monospace" font-size="11" fill="#f05032" opacity="0.85" font-weight="600">Git</text><rect x="3970" y="8" width="90" height="36" rx="18" fill="rgba(255,255,255,0.03)" stroke="#fcc624" stroke-width="0.8" stroke-opacity="0.3"/><circle cx="3988" cy="26" r="5" fill="#fcc624" opacity="0.8"/><text x="4000" y="30" font-family="Courier New,monospace" font-size="11" fill="#fcc624" opacity="0.85" font-weight="600">Linux</text><rect x="4080" y="8" width="90" height="36" rx="18" fill="rgba(255,255,255,0.03)" stroke="#f24e1e" stroke-width="0.8" stroke-opacity="0.3"/><circle cx="4098" cy="26" r="5" fill="#f24e1e" opacity="0.8"/><text x="4110" y="30" font-family="Courier New,monospace" font-size="11" fill="#f24e1e" opacity="0.85" font-weight="600">Figma</text><rect x="4190" y="8" width="90" height="36" rx="18" fill="rgba(255,255,255,0.03)" stroke="#dc382d" stroke-width="0.8" stroke-opacity="0.3"/><circle cx="4208" cy="26" r="5" fill="#dc382d" opacity="0.8"/><text x="4220" y="30" font-family="Courier New,monospace" font-size="11" fill="#dc382d" opacity="0.85" font-weight="600">Redis</text><rect x="4300" y="8" width="90" height="36" rx="18" fill="rgba(255,255,255,0.03)" stroke="#e10098" stroke-width="0.8" stroke-opacity="0.3"/><circle cx="4318" cy="26" r="5" fill="#e10098" opacity="0.8"/><text x="4330" y="30" font-family="Courier New,monospace" font-size="11" fill="#e10098" opacity="0.85" font-weight="600">GraphQL</text>
</g>
<rect width="900" height="52" fill="url(#fadeL)"/>
</svg>